<?xml version="1.0" standalone="no"?><!DOCTYPE svg PUBLIC "-//W3C//DTD SVG 1.1//EN" "http://www.w3.org/Graphics/SVG/1.1/DTD/svg11.dtd"><svg t="1537518388655" class="icon" style="" viewBox="0 0 1024 1024" version="1.1" xmlns="http://www.w3.org/2000/svg" p-id="4806" xmlns:xlink="http://www.w3.org/1999/xlink" width="32" height="32"><defs><style type="text/css"></style></defs><path d="M115.136 198.016a83.008 83.008 0 1 0 0-166.016 83.008 83.008 0 0 0 0 166.016z m0 32a115.008 115.008 0 1 1 0-230.016 115.008 115.008 0 0 1 0 230.016z m396-32a83.008 83.008 0 1 0 0-166.016 83.008 83.008 0 0 0 0 166.016z m0 32a115.008 115.008 0 1 1 0-230.016 115.008 115.008 0 0 1 0 230.016z m397.984-32a83.008 83.008 0 1 0 0-166.016 83.008 83.008 0 0 0 0 166.016z m0 32a115.008 115.008 0 1 1 0-230.016 115.008 115.008 0 0 1 0 230.016zM115.136 594.016a83.008 83.008 0 1 0 0-166.016 83.008 83.008 0 0 0 0 166.016z m0 32a115.008 115.008 0 1 1 0-230.016 115.008 115.008 0 0 1 0 230.016z m396-32a83.008 83.008 0 1 0 0-166.016 83.008 83.008 0 0 0 0 166.016z m0 32a115.008 115.008 0 1 1 0-230.016 115.008 115.008 0 0 1 0 230.016z m397.984-32a83.008 83.008 0 1 0 0-166.016 83.008 83.008 0 0 0 0 166.016z m0 32a115.008 115.008 0 1 1 0-230.016 115.008 115.008 0 0 1 0 230.016zM115.136 992a83.008 83.008 0 1 0 0-165.984 83.008 83.008 0 0 0 0 165.984z m0 32a115.008 115.008 0 1 1 0-230.016 115.008 115.008 0 0 1 0 230.016z m396-32a83.008 83.008 0 1 0 0-165.984 83.008 83.008 0 0 0 0 165.984z m0 32a115.008 115.008 0 1 1 0-230.016 115.008 115.008 0 0 1 0 230.016z m397.984-32a83.008 83.008 0 1 0 0-165.984 83.008 83.008 0 0 0 0 165.984z m0 32a115.008 115.008 0 1 1 0-230.016 115.008 115.008 0 0 1 0 230.016z" p-id="4807"></path></svg>