<?xml version="1.0" standalone="no"?><!DOCTYPE svg PUBLIC "-//W3C//DTD SVG 1.1//EN" "http://www.w3.org/Graphics/SVG/1.1/DTD/svg11.dtd"><svg t="1537518392734" class="icon" style="" viewBox="0 0 1024 1024" version="1.1" xmlns="http://www.w3.org/2000/svg" p-id="4919" xmlns:xlink="http://www.w3.org/1999/xlink" width="32" height="32"><defs><style type="text/css"></style></defs><path d="M300.224 107.84c16.64-6.688 35.584 1.152 42.4 17.504a31.84 31.84 0 0 1-17.76 41.728c-155.872 62.848-259.84 212.544-259.84 381.184C65.024 775.68 252.288 960 483.264 960c180.416 0 338.784-113.472 396.032-278.88a32.64 32.64 0 0 1 41.28-19.968 31.872 31.872 0 0 1 20.288 40.64C874.688 892.896 691.712 1024 483.264 1024 216.416 1024 0 811.008 0 548.256 0 353.376 120.128 180.48 300.224 107.872z" p-id="4920"></path><path d="M302.08 344.32a32.864 32.864 0 0 1 45.888 3.008 31.68 31.68 0 0 1-3.072 45.152 204.96 204.96 0 0 0-71.84 155.776c0 114.304 94.144 206.944 210.24 206.944a210.816 210.816 0 0 0 176.608-94.656 32.832 32.832 0 0 1 44.96-9.472c15.04 9.6 19.36 29.44 9.6 44.256a276.096 276.096 0 0 1-231.168 123.872c-152 0-275.232-121.28-275.232-270.944A268.544 268.544 0 0 1 302.08 344.32z" p-id="4921"></path><path d="M497.376 374.4c74.624 12.512 133.568 70.528 146.272 144h321.824c-14.496-247.968-216.192-446.528-468.096-460.8v316.8zM468.128 0C775.008 0 1024 245.088 1024 547.2v28.8H585.152v-28.8c1.92-64.576-51.424-117.12-117.024-115.2h-29.28V0h29.28z" p-id="4922"></path></svg>