<?xml version="1.0" standalone="no"?><!DOCTYPE svg PUBLIC "-//W3C//DTD SVG 1.1//EN" "http://www.w3.org/Graphics/SVG/1.1/DTD/svg11.dtd"><svg t="1537518903778" class="icon" style="" viewBox="0 0 1024 1024" version="1.1" xmlns="http://www.w3.org/2000/svg" p-id="6675" xmlns:xlink="http://www.w3.org/1999/xlink" width="32" height="32"><defs><style type="text/css"></style></defs><path d="M960 320H64v544a32 32 0 0 0 32 32h352a32 32 0 0 1 0 64H96a96 96 0 0 1-96-96V96a96 96 0 0 1 96-96h832a96 96 0 0 1 96 96v384a32 32 0 0 1-64 0v-160z m0-64V96a32 32 0 0 0-32-32H96a32 32 0 0 0-32 32v160h896z m-89.6 512l153.6 153.6-102.4 102.4-153.6-153.6-153.6 153.6-102.4-102.4 153.6-153.6-153.6-153.6 102.4-102.4 153.6 153.6 153.6-153.6 102.4 102.4-153.6 153.6zM128 640h256v192H128v-192z" p-id="6676"></path></svg>