<?xml version="1.0" encoding="UTF-8"?>
<svg width="32px" height="32px" viewBox="0 0 32 32" version="1.1" xmlns="http://www.w3.org/2000/svg" xmlns:xlink="http://www.w3.org/1999/xlink">
    <!-- Generator: Sketch 49.2 (51160) - http://www.bohemiancoding.com/sketch -->
    <title>Combined Shape Copy 5</title>
    <desc>Created with Sketch.</desc>
    <defs></defs>
    <g id="Welcome" stroke="none" stroke-width="1" fill="none" fill-rule="evenodd">
        <g id="Artboard" fill="#A3A3A3">
            <path d="M13.7274085,25.9165464 L19.3705015,25.9165464 C19.9219246,25.9165464 20.3689414,26.3635632 20.3689414,26.9149863 C20.3689414,27.4664095 19.9219246,27.9134262 19.3705015,27.9134262 L13.7274085,27.9134262 L13.7274085,32.7876946 L18.887853,32.7876946 C19.4392761,32.7876946 19.8862929,33.2347114 19.8862929,33.7861346 C19.8862929,34.3375577 19.4392761,34.7845745 18.887853,34.7845745 L12.7074532,34.7845745 C12.15603,34.7845745 11.7090132,34.3375577 11.7090132,33.7861346 C11.7090132,33.7060011 11.7184534,33.6280726 11.7362824,33.5534003 C11.7324795,33.5179824 11.7305286,33.4820101 11.7305286,33.4455821 L11.7305286,17.2531767 C8.19871906,15.6734036 5.73052862,12.0655184 5.73052862,7.86746115 C5.73052862,2.21340689 10.2076811,-2.37010971 15.7305286,-2.37010971 C21.2533761,-2.37010971 25.7305286,2.21340689 25.7305286,7.86746115 C25.7305286,13.5215154 21.2533761,18.105032 15.7305286,18.105032 C15.0444945,18.105032 14.3745955,18.0343085 13.7274085,17.8995946 L13.7274085,25.9165464 Z M15.730102,16.0832989 C20.1501032,16.0832989 23.7332221,12.4150555 23.7332221,7.89004791 C23.7332221,3.36504036 20.1501032,-0.303203033 15.730102,-0.303203033 C11.3101008,-0.303203033 7.7269819,3.36504036 7.7269819,7.89004791 C7.7269819,12.4150555 11.3101008,16.0832989 15.730102,16.0832989 Z" id="Combined-Shape-Copy-5" transform="translate(15.730529, 16.207232) rotate(45.000000) translate(-15.730529, -16.207232) "></path>
        </g>
    </g>
</svg>