<?xml version="1.0" standalone="no"?>
<!DOCTYPE svg PUBLIC "-//W3C//DTD SVG 1.1//EN" "http://www.w3.org/Graphics/SVG/1.1/DTD/svg11.dtd">
<svg width="28px" height="32px" viewBox="0 0 28 32" version="1.1" xmlns="http://www.w3.org/2000/svg" xmlns:xlink="http://www.w3.org/1999/xlink">
    <desc>Created with Sketch.</desc>
    <defs></defs>
    <g id="Welcome" stroke="none" stroke-width="1" fill="none" fill-rule="evenodd">
        <g id="Artboard" transform="translate(-2.000000, 0.000000)">
            <g id="客户编码-copy" transform="translate(2.000000, 0.000000)">
                <path d="M10.9932886,3.9375 L7.98657718,3.9375 C7.4330569,3.9375 6.98434004,4.38521525 6.98434004,4.9375 L6.98434004,6.9375 C6.98434004,7.48978475 7.4330569,7.9375 7.98657718,7.9375 L20.0134228,7.9375 C20.5669431,7.9375 21.01566,7.48978475 21.01566,6.9375 L21.01566,4.9375 C21.01566,4.38521525 20.5669431,3.9375 20.0134228,3.9375 L17.0067114,3.9375 L17.0067114,2 L10.9932886,2 L10.9932886,3.9375 Z M10.9932886,0 L17.0067114,0 C18.0927953,-2.22044605e-16 18.977133,0.861849695 19.0102255,1.93749971 L20.0134228,1.9375 C21.6739837,1.9375 23.0201342,3.28064575 23.0201342,4.9375 L23.0201342,6.9375 C23.0201342,8.59435425 21.6739837,9.9375 20.0134228,9.9375 L7.98657718,9.9375 C6.32601632,9.9375 4.97986577,8.59435425 4.97986577,6.9375 L4.97986577,4.9375 C4.97986577,3.28064575 6.32601632,1.9375 7.98657718,1.9375 L8.98977445,1.9375 C9.02286697,0.861849695 9.90720472,2.22044605e-16 10.9932886,0 Z M22.0170724,5.96875 L22.0170724,3.96875 L22.9888143,3.96875 C25.7564157,3.96875 28,6.20732625 28,8.96875 L28,27 C28,29.7614237 25.7564157,32 22.9888143,32 L5.01118568,32 C2.24358425,32 0,29.7614237 0,27 L0,8.96875 C-6.67624047e-16,6.20732625 2.24358425,3.96875 5.01118568,3.96875 L6.00621052,3.96875 L6.00621052,5.96875 L5.01118568,5.96875 C3.35062482,5.96875 2.00447427,7.31189575 2.00447427,8.96875 L2.00447427,27 C2.00447427,28.6568542 3.35062482,30 5.01118568,30 L22.9888143,30 C24.6493752,30 25.9955257,28.6568542 25.9955257,27 L25.9955257,8.96875 C25.9955257,7.31189575 24.6493752,5.96875 22.9888143,5.96875 L22.0170724,5.96875 Z" id="Combined-Shape" fill-rule="nonzero"></path>
                <path d="M7,13 L21,13 C21.5522847,13 22,13.4477153 22,14 C22,14.5522847 21.5522847,15 21,15 L7,15 C6.44771525,15 6,14.5522847 6,14 C6,13.4477153 6.44771525,13 7,13 Z M7,19 L21,19 C21.5522847,19 22,19.4477153 22,20 C22,20.5522847 21.5522847,21 21,21 L7,21 C6.44771525,21 6,20.5522847 6,20 C6,19.4477153 6.44771525,19 7,19 Z M7,25 L15,25 C15.5522847,25 16,25.4477153 16,26 C16,26.5522847 15.5522847,27 15,27 L7,27 C6.44771525,27 6,26.5522847 6,26 C6,25.4477153 6.44771525,25 7,25 Z" id="Combined-Shape"></path>
            </g>
        </g>
    </g>
</svg>
