<?xml version="1.0" standalone="no"?><!DOCTYPE svg PUBLIC "-//W3C//DTD SVG 1.1//EN" "http://www.w3.org/Graphics/SVG/1.1/DTD/svg11.dtd"><svg t="1537518915420" class="icon" style="" viewBox="0 0 1024 1024" version="1.1" xmlns="http://www.w3.org/2000/svg" p-id="7014" xmlns:xlink="http://www.w3.org/1999/xlink" width="32" height="32"><defs><style type="text/css"></style></defs><path d="M395.512242 455.71103L32.830061 93.028848a31.030303 31.030303 0 0 1 43.876848-43.876848l406.55903 406.55903-393.464242 393.464243-62.743273-62.805334a31.030303 31.030303 0 0 1 43.876849-43.876848l18.897454 18.897454 305.648485-305.679515z m105.534061 367.336728c30.875152 30.875152 39.718788 75.776 23.707152 111.491878-0.062061-0.093091-22.590061-22.652121-67.584-67.61503l43.876848-43.876848 67.211636 67.211636c15.887515 15.887515 38.105212 17.283879 49.462303 5.957818 11.326061-11.357091 9.929697-33.574788-5.957818-49.462303l-75.372606-75.403636a31.030303 31.030303 0 0 1 43.876849-43.845818l75.403636 75.372606c38.94303 38.94303 42.821818 100.289939 5.926788 137.216-36.801939 36.801939-97.869576 33.016242-136.843636-5.585455a86.202182 86.202182 0 0 1-17.749334 25.755152c-36.926061 36.926061-98.27297 33.016242-137.216-5.926788l-68.67006-68.670061a31.030303 31.030303 0 0 1 43.876848-43.876848l68.670061 68.67006c15.856485 15.856485 38.105212 17.283879 49.431272 5.895758 11.357091-11.326061 9.929697-33.543758-5.895757-49.431273l43.845818-43.876848z m-84.96097 2.792727a31.030303 31.030303 0 0 1 43.876849-43.876849l40.339394 40.339394a31.030303 31.030303 0 1 1-43.907879 43.845818l-40.339394-40.339393z m-123.593697 51.2a31.030303 31.030303 0 0 1 43.876849-43.876849c38.94303 38.94303 42.852848 100.289939 5.926788 137.216-36.926061 36.926061-98.241939 33.016242-137.18497-5.957818l-129.148121-129.148121a31.030303 31.030303 0 0 1 43.876848-43.876849l129.148122 129.148122c15.856485 15.887515 38.074182 17.283879 49.431272 5.926788 11.357091-11.326061 9.929697-33.574788-5.926788-49.431273z m264.067879-260.251152a31.030303 31.030303 0 0 1 43.907879-43.907878l216.529454 216.529454c38.94303 38.94303 42.821818 100.289939 5.895758 137.216-36.89503 36.926061-98.241939 33.016242-137.18497-5.926788l-115.712-115.74303a31.030303 31.030303 0 0 1 43.876849-43.845818l115.74303 115.680969c15.825455 15.887515 38.074182 17.283879 49.431273 5.957819 11.326061-11.357091 9.929697-33.574788-5.957818-49.462303l-216.498425-216.498425z m-103.703273-112.888242a31.030303 31.030303 0 1 1-0.465454-62.060606l235.830303-1.861818c55.451152-0.434424 101.934545 39.749818 101.531151 92.035878-0.434424 51.851636-46.886788 92.222061-102.027636 92.656485l-109.630061 0.868849a31.030303 31.030303 0 1 1-0.496484-62.060606l109.63006-0.868849c23.024485-0.186182 40.339394-15.204848 40.463515-31.092363 0.093091-15.422061-16.321939-29.66497-39.005091-29.478788l-235.830303 1.861818zM946.424242 310.30303H387.878788a31.030303 31.030303 0 0 1 0-62.060606h558.545454V137.650424A75.589818 75.589818 0 0 0 870.834424 62.060606H339.347394A75.589818 75.589818 0 0 0 263.757576 137.650424a31.030303 31.030303 0 0 1-62.060606 0A137.650424 137.650424 0 0 1 339.347394 0h531.48703A137.650424 137.650424 0 0 1 1008.484848 137.650424v531.487031A137.650424 137.650424 0 0 1 870.834424 806.787879a31.030303 31.030303 0 1 1 0-62.060606A75.589818 75.589818 0 0 0 946.424242 669.137455V310.30303z" p-id="7015"></path></svg>