<?xml version="1.0" standalone="no"?><!DOCTYPE svg PUBLIC "-//W3C//DTD SVG 1.1//EN" "http://www.w3.org/Graphics/SVG/1.1/DTD/svg11.dtd"><svg t="1537518402719" class="icon" style="" viewBox="0 0 1024 1024" version="1.1" xmlns="http://www.w3.org/2000/svg" p-id="5152" xmlns:xlink="http://www.w3.org/1999/xlink" width="32" height="32"><defs><style type="text/css"></style></defs><path d="M576 608H192v166.08C192 807.904 209.12 832 224 832h79.2v64H224c-55.808 0-96-56.48-96-121.92V448H80a32 32 0 0 1 0-64H128V272H32a32 32 0 1 1 0-64h96V121.92C128 56.512 168.192 0 224 0h320c55.808 0 96 56.48 96 121.92V160h209.088c42.336 0 76.736 34.08 91.296 82.912l76.16 255.328c4.928 16.576 7.456 34.464 7.456 52.48v191.104C1024 824.608 984.96 896 925.216 896h-63.936v-64h63.936c4.48 0 11.776-5.664 19.136-19.136 9.76-17.824 15.648-43.328 15.648-71.04V608h-128c-56.832 0-96-61.568-96-132.576V224h-96v608h73.28v64H482.24v-64H576v-224z m0-64V121.92C576 88.096 558.88 64 544 64H224c-14.88 0-32 24.064-32 57.92V208h128a32 32 0 0 1 0 64H192V384h80a32 32 0 0 1 0 64H192v96h384z m224-320v251.424C800 515.52 818.144 544 832 544h127.84c-0.512-9.6-2.08-18.88-4.64-27.488l-76.16-255.296C871.84 236.8 858.88 224 849.12 224H800z" p-id="5153"></path><path d="M792 1024a120 120 0 1 1 0-240 120 120 0 0 1 0 240z m0-64a56 56 0 1 0 0-112 56 56 0 0 0 0 112zM392 1024a120 120 0 1 1 0-240 120 120 0 0 1 0 240z m0-64a56 56 0 1 0 0-112 56 56 0 0 0 0 112z" p-id="5154"></path></svg>