<?xml version="1.0" standalone="no"?><!DOCTYPE svg PUBLIC "-//W3C//DTD SVG 1.1//EN" "http://www.w3.org/Graphics/SVG/1.1/DTD/svg11.dtd"><svg t="1537518935961" class="icon" style="" viewBox="0 0 1024 1024" version="1.1" xmlns="http://www.w3.org/2000/svg" p-id="7579" xmlns:xlink="http://www.w3.org/1999/xlink" width="32" height="32"><defs><style type="text/css"></style></defs><path d="M944 604.16c5.12-0.576 50.176-6.592 70.784-43.904 9.344-17.024 16.32-45.952-3.584-87.04-34.624-71.232-341.44-375.552-402.56-435.84A38.72 38.72 0 0 0 596.48 26.88 146.432 146.432 0 0 0 518.208 0.128L512.832 0h-1.664c-1.728 0-3.456 0-4.608 0.128a144.832 144.832 0 0 0-78.656 26.368 35.008 35.008 0 0 0-11.648 9.984C354.688 97.28 47.552 401.792 12.864 473.216c-19.968 41.088-12.992 70.016-3.584 87.04 20.544 37.312 65.664 43.328 70.72 43.904a34.944 34.944 0 0 0 4.032 0.192h40.32v272.64c0 45.568 13.376 81.088 39.68 105.728 34.56 32.32 78.08 32.192 86.4 31.808h175.04a36.48 36.48 0 0 0 36.48-36.48v-317.12h100.16v317.12c0 20.096 16.32 36.48 36.48 36.48H776.768c14.72 0 52.352-3.072 83.072-31.808 26.432-24.64 39.744-60.16 39.744-105.664V750.08a36.48 36.48 0 0 0-72.896 0v126.976c0 24.128-5.44 41.6-16.128 51.968a49.792 49.792 0 0 1-29.312 12.416v0.512l-4.48-0.256a40.512 40.512 0 0 0-2.56-0.064H635.072V624.512a36.48 36.48 0 0 0-36.48-36.48H425.472a36.48 36.48 0 0 0-36.48 36.48v317.12H246.848c-4.928-0.128-21.44-0.96-33.472-12.608-10.752-10.368-16.128-27.84-16.128-51.968v-309.12a36.48 36.48 0 0 0-36.48-36.48h-73.6a53.376 53.376 0 0 1-12.288-3.968l-1.728-1.152-0.256-2.112c-0.128-1.536-0.192-7.424 5.504-19.2 20.288-41.728 216.64-246.784 391.168-418.56 3.328-2.56 18.56-12.8 40-13.504H515.008c21.12 0.768 36.16 11.008 39.04 13.12 174.912 172.16 371.2 377.216 391.552 418.944 3.456 7.232 4.736 12.032 5.312 14.656l3.84 1.792-4.48 4.352a31.424 31.424 0 0 1-12.544 5.504l-74.496 0.128a36.48 36.48 0 0 0 0 72.96h76.8c1.28 0 2.624-0.128 3.968-0.256" p-id="7580"></path></svg>