<?xml version="1.0" encoding="UTF-8"?>
<svg width="18px" height="20px" viewBox="0 0 18 20" version="1.1" xmlns="http://www.w3.org/2000/svg" xmlns:xlink="http://www.w3.org/1999/xlink">
    <!-- Generator: Sketch 49.2 (51160) - http://www.bohemiancoding.com/sketch -->
    <title>Combined Shape Copy 3</title>
    <desc>Created with Sketch.</desc>
    <defs></defs>
    <g id="Page-1" stroke="none" stroke-width="1" fill="none" fill-rule="evenodd">
        <path d="M0.737023156,15.5766384 C1.52567901,14.434876 2.57395235,13.7681436 3.57106099,13.7681436 C4.70159825,13.7681436 5.00190844,13.6457499 5.6740295,13.3124275 C6.34615056,12.9791051 6.61753794,11.8767033 5.9802475,11.2712787 C5.34295706,10.6658542 3.37039876,8.26079758 3.57106099,5.17701051 C3.77172322,2.09322344 4.71185651,2.34035106 5.34914695,1.79669603 C5.9864374,1.253041 6.33676912,0.104138068 7.09546518,0.104138068 C7.85416123,0.104138068 10.1573075,-0.518911246 12.1158185,1.28294737 C14.0743295,3.08480599 14.0287579,5.25657788 13.4904433,7.57494447 C12.9521287,9.89331105 12.1022409,10.7700342 11.5664671,11.2712787 C11.0306932,11.7725232 11.0171156,12.8567114 11.5664671,13.3124275 C12.1158185,13.7681436 12.5996608,13.7681436 13.890263,13.7681436 C15.0721083,13.7681436 16.6343183,14.7703328 17.2882446,16.103062 C15.3970193,18.4778437 12.4807445,20 9.20895117,20 C5.70138728,20 2.60242664,18.2505615 0.737023156,15.5766384 Z" id="Combined-Shape-Copy-3" fill="#CCCCCC"></path>
    </g>
</svg>