<?xml version="1.0" standalone="no"?><!DOCTYPE svg PUBLIC "-//W3C//DTD SVG 1.1//EN" "http://www.w3.org/Graphics/SVG/1.1/DTD/svg11.dtd"><svg t="1537518927818" class="icon" style="" viewBox="0 0 5075 1024" version="1.1" xmlns="http://www.w3.org/2000/svg" p-id="7353" xmlns:xlink="http://www.w3.org/1999/xlink" width="158.59375" height="32"><defs><style type="text/css"></style></defs><path d="M2487.340522 278.394435c-33.124174 3.205565-61.529043 10.462609-80.940522 20.168348l21.815652-30.363826-82.365217-54.939827 138.373565 51.422609c-3.606261-11.442087-10.24-24.041739-22.394435-33.881043-56.008348-45.590261-149.504-49.819826-269.57913-49.819826l-634.212174 0.26713A521.97287 521.97287 0 0 0 1328.439652 6.544696h1177.6c166.422261 0 303.771826 136.370087 304.350609 306.176 0.578783 170.162087-134.455652 308.313043-301.100522 308.313043h-249.722435l-106.362434 402.565565h-244.290783c167.757913-520.904348 453.320348-590.536348 637.106087-587.330782 62.330435 1.068522 60.68313 28.582957 46.658783 59.525565 77.156174-38.600348 88.375652-126.530783 39.490782-166.377739-47.326609-38.64487-143.983304-33.391304-143.983304-33.391305s0.667826-7.301565-0.890435-17.630608z m-723.745392 116.201739h234.98574l-176.038957 629.047652h-234.985739l176.038956-629.092174zM1126.489043 6.41113c271.983304 0 492.410435 218.067478 492.410435 487.067827 0 268.911304-220.42713 487.023304-492.410435 487.023304a493.033739 493.033739 0 0 1-430.035478-249.856l-45.768348-82.365218H356.708174L299.631304 545.480348h530.342957c24.932174 139.753739 148.168348 245.938087 296.559304 245.938087 166.422261 0 301.278609-133.431652 301.278609-297.984 0-164.552348-134.90087-297.939478-301.278609-297.939478-4.407652 0-8.770783 0.133565-13.133913 0.311652v-0.311652H399.048348l-47.994435-86.372174H57.121391L0 6.500174h1126.489043zM567.251478 469.170087L522.195478 394.017391H227.817739L170.607304 298.562783h767.73287c-50.042435 44.076522-83.522783 103.780174-91.091478 170.607304h-280.041739z m3623.223652-54.450087l-27.336347 99.06087a21.058783 21.058783 0 0 1-20.079305 15.003826H3948.633043l31.47687-114.064696h210.320696z m-80.806956-244.112696h-95.009391c-4.897391 12.109913-10.24 24.041739-16.027826 35.706435H3899.65913l-18.832695 68.296348h77.868522a581.320348 581.320348 0 0 1-127.955479 134.322087l-33.079652 119.852522h-0.311652l-1.424696 5.298087c28.40487-15.315478 55.607652-32.50087 81.296696-51.378087l-31.610435 114.420869h306.042435c41.984 0 80.495304-28.805565 91.40313-68.340869l31.47687-114.064696 18.877217-68.296348h-277.904695c17.274435-22.884174 32.946087-46.83687 47.059478-71.813565h268.955826l18.832696-68.296348H4096c4.897391-11.753739 9.438609-23.596522 13.668174-35.706435z m487.646609 359.290435h392.859826l-17.675131 67.227826h-495.081739c-60.460522 0-96.52313-49.152-80.584348-109.790608l65.580522-249.499827h-41.405217l17.719652-67.227826h131.606261l-17.675131 67.227826-65.625043 249.499827c-6.188522 23.507478 7.791304 42.562783 31.209739 42.562782h47.014956l-39.624347-57.878261c85.348174-70.255304 157.874087-157.339826 209.074087-254.441739h-145.274435l18.521043-71.145739h159.565913c10.685217-26.713043 19.767652-54.049391 26.980174-81.786435 1.869913-7.212522 3.561739-14.380522 5.075478-21.459478H4904.247652c-1.558261 7.123478-3.294609 14.246957-5.12 21.459478-7.257043 27.692522-16.027826 54.984348-26.178782 81.786435h190.464l-18.521044 71.145739h-202.573913c-57.878261 118.917565-143.270957 226.03687-245.00313 312.32zM4325.420522 43.141565h64.512l-18.565565 74.796522h-64.512l-10.462609 42.117565h-82.810435l10.462609-42.162087H4076.410435l-10.462609 42.162087h-82.810435l10.418087-42.162087h-66.025739l18.565565-74.796522h66.025739l8.94887-36.062608h82.810435l-8.904348 36.062608h147.589565l8.904348-36.062608h82.810435l-8.904348 36.062608z m-666.490435 831.131826l-17.630609 64.155826h96.077913l-11.664695 42.562783H3582.664348l11.664695-42.562783 25.377392-92.293565 3.917913-14.380522 29.295304-106.674087H3795.923478l-11.709217 42.518261H3688.18087l-17.586087 64.111305h96.077913l-11.664696 42.562782h-96.077913zM3505.463652 350.208c-9.48313 38.555826-4.318609 75.553391 14.469565 102.845217l25.06574 36.463305-76.710957 64.957217-25.065739-36.463304c-30.586435-44.521739-39.045565-104.848696-23.552-167.846957l44.254609-179.556174H3625.360696l-16.829218 68.207305h-75.642435l-27.425391 111.393391zM4606.308174 42.651826l-20.168348 85.303652H4435.70087l20.212869-85.303652h150.394435z m-682.429217 0l-20.168348 85.303652h-150.394435l20.168348-85.303652h150.394435z m-496.729044 216.82087h-57.433043l-14.82574 54.227478h57.655653l-18.788174 69.721043h-57.967305l-15.894261 58.056348h58.189914l-18.788174 69.721044h-58.501566l-2.626782 9.705739c-18.877217 70.032696-75.820522 118.873043-149.860174 118.873043h-34.771478l19.188869-70.166261a79.070609 79.070609 0 0 0 71.101218-57.61113l0.222608-0.801391H3149.022609l18.788174-69.721044h54.895304l15.894261-58.056348h-55.117913l18.788174-69.721043h55.429565l14.825739-54.227478h-55.652174l18.832696-69.676522 205.06713-77.467826h-323.940174L3135.666087 42.651826h489.73913l-18.788174 69.676522-205.111652 77.467826h44.477218l-18.788174 69.676522z m-270.959304-88.865392l-47.549218 179.600696c-16.65113 62.953739-57.700174 123.325217-114.153739 167.846957l-46.213565 36.418782-47.994435-65.001739 46.213565-36.418783c34.593391-27.291826 59.748174-64.289391 69.988174-102.845217l29.473392-111.393391h-78.269218l18.075826-68.207305h170.384696z m1690.579478 85.303653c54.717217 71.368348 89.622261 158.497391 100.752696 255.910956h-108.633044a438.316522 438.316522 0 0 0-61.974261-156.805565 977.341217 977.341217 0 0 0 69.854609-99.105391zM3881.22713 170.607304l-18.565565 67.049739L3784.347826 520.726261h-0.311652l-8.726261 31.521391a692.134957 692.134957 0 0 1-149.904696 44.877913l25.288348-91.447652 0.445218-0.089043a80.673391 80.673391 0 0 0 58.145391-56.186435l58.63513-211.745392h-43.453217l18.565565-67.049739h138.284522z m23.28487 668.716522c24.486957 12.377043 37.531826 31.343304 27.603478 67.005217-11.174957 40.336696-52.045913 74.662957-105.071304 74.662957-30.72 0-57.789217-13.000348-73.728-36.018087l35.795478-33.970087c11.887304 16.339478 30.541913 27.336348 50.710261 27.336348 23.863652 0 39.624348-10.99687 44.432696-28.360348 5.12-18.298435-7.257043-23.952696-25.154783-33.302261l-26.802087-13.979826c-20.390957-10.329043-38.110609-30.319304-28.093217-66.337391 11.174957-40.292174 52.669217-71.279304 99.194435-71.279305 26.668522 0 50.176 11.308522 63.131826 31.610435l-31.833044 31.031652c-10.99687-13.000348-24.130783-20.346435-43.052522-20.346434-20.168348 0-35.884522 9.661217-40.425739 26.000695-4.897391 17.67513 9.794783 23.997217 27.024696 32.322783l26.267826 13.668174z m170.607304 0c24.486957 12.377043 37.531826 31.343304 27.603479 67.005217-11.174957 40.336696-52.090435 74.662957-105.071305 74.662957-30.72 0-57.789217-13.000348-73.772521-36.018087l35.84-33.970087c11.887304 16.339478 30.541913 27.336348 50.71026 27.336348 23.863652 0 39.624348-10.99687 44.432696-28.360348 5.12-18.298435-7.257043-23.952696-25.154783-33.302261l-26.802087-13.979826c-20.390957-10.329043-38.110609-30.319304-28.093217-66.337391 11.174957-40.292174 52.669217-71.279304 99.194435-71.279305 26.713043 0 50.176 11.308522 63.131826 31.610435l-31.833044 31.031652c-10.99687-13.000348-24.130783-20.346435-43.052521-20.346434-20.168348 0-35.884522 9.661217-40.425739 26.000695-4.897391 17.67513 9.794783 23.997217 27.024695 32.322783l26.267826 13.668174z m-1226.573913 34.949565l-17.630608 64.155826h96.077913l-11.664696 42.562783H2772.324174l8.102956-29.562435 3.56174-13.000348 58.590608-213.348174H2985.583304l-11.664695 42.518261h-96.122435l-17.586087 64.111305H2956.243478l-11.664695 42.562782H2848.50087z m350.297044-149.192348l-103.023305 131.873392 33.836522 124.037565h-52.134956l-20.346435-74.529391-58.234435 74.529391h-56.008348l99.728696-127.688348-35.083131-128.222609h52.179479l21.504 78.758957 61.529043-78.803478h56.05287z m1583.415652 103.067827l11.442087-60.416h25.86713l-14.246956 74.974608a362.273391 362.273391 0 0 1-1.958957 10.329044h-26.445913c1.424696-5.698783 2.715826-11.442087 3.873392-17.274435l1.469217-7.613217z m-1460.402087-19.589566c-5.87687 22.661565-28.582957 40.96-50.665739 40.96h-35.973565l21.370434-81.92h36.062609c22.038261 0 35.127652 18.342957 29.206261 40.96m-14.959304-83.478261h-83.834435l-66.871652 255.910957h44.655304l23.240348-88.909913h39.17913c44.966957 0 91.225043-37.398261 103.290435-83.522783 12.02087-46.08-14.692174-83.478261-59.65913-83.478261m228.218434 83.478261c-5.921391 22.661565-28.582957 40.96-50.665739 40.96h-36.018087l21.459479-81.92h35.973565c22.082783 0 35.172174 18.342957 29.250782 40.96m44.699827 0c12.02087-46.08-14.692174-83.478261-59.659131-83.478261h-83.834435l-66.871652 255.910957h44.655304l23.240348-88.909913h39.179131c1.513739 0 3.072-0.133565 4.585739-0.222609l11.308522 89.132522h44.655304l-12.955826-102.266435c26.312348-14.870261 47.994435-40.69287 55.652174-70.166261m1276.126608 83.70087h-107.252869a281.33287 281.33287 0 0 1-94.163478 105.516522l-21.682087-32.411826a241.886609 241.886609 0 0 0 71.279304-73.149218h-38.288696l8.815305-33.792h47.104a238.770087 238.770087 0 0 0 12.421565-37.264695l13.267478-49.196522h-35.483826l8.815304-33.836522h35.84l7.969392-29.517913 9.883826 0.089043 30.141217 0.222609-7.924869 29.250783H4874.061913l-32.50087 120.253217h23.151305l-8.815305 33.836522z m-74.306782 105.516522a127.910957 127.910957 0 0 0-22.795131-63.042783c9.037913-11.842783 15.716174-21.726609 22.795131-34.949565 24.486957 25.689043 41.538783 57.878261 42.829913 97.947826h-42.829913z m-210.320696 0l78.046609-288.857044h44.966956l-22.127304 82.053565h28.716522l-9.171478 33.836522h-28.716522l-46.747826 172.922435h-44.966957z m6.589218-219.937392h35.884521l-23.418434 86.639305h-35.884522l23.418435-86.639305z m-50.309566 56.631653h-157.250782l8.815304-33.836522h44.699826l7.746783-28.672h-45.545739l9.216-33.836522h45.456695l7.92487-29.206261h44.966956l-7.880347 29.250783h46.658782l-8.815304 33.792h-46.970435l-7.746783 28.716522h67.584l-8.815304 33.792z m-16.473043 62.864695h-36.463304l-18.387479 66.604522-1.513739 5.431652a38.377739 38.377739 0 0 1-36.908522 28.360348h-23.373913v0.044522h-37.531826l-2.31513-33.836522h45.32313c6.678261 0 12.55513-4.452174 14.336-10.99687l15.36-55.607652h-76.399304l8.815304-33.747478h76.933566l3.561739-13.000348h45.056l-3.561739 13.000348h35.929043l-8.815304 33.747478z m-159.922087 17.408h37.531826l2.31513 33.391305h-37.531826l-2.31513-33.391305z m-17.808696-17.363478h-25.956174l-26.935652 99.728696h-46.035478l26.935652-99.728696h-50.754782l8.815304-33.836522h51.066435l19.144347-70.789565h-15.938782l-8.770783 33.836522h-35.572869l23.596521-91.136h35.617392l-6.099479 23.507478h16.294957l13.712696-50.710261h46.035478l-13.712696 50.710261h24.843131l-8.815305 33.792h-25.154782l-19.144348 70.789565h25.6l-8.815304 33.836522z m-106.585043-214.950957l-89.622261 341.214609h720.806956l89.57774-341.214609h-720.806957z" p-id="7354"></path></svg>