<?xml version="1.0" standalone="no"?><!DOCTYPE svg PUBLIC "-//W3C//DTD SVG 1.1//EN" "http://www.w3.org/Graphics/SVG/1.1/DTD/svg11.dtd"><svg t="1537859686181" class="icon" style="" viewBox="0 0 2849 1024" version="1.1" xmlns="http://www.w3.org/2000/svg" p-id="1121" xmlns:xlink="http://www.w3.org/1999/xlink" width="89.03125" height="32"><defs><style type="text/css"></style></defs><path d="M2487.340522 278.394435c-33.124174 3.205565-61.529043 10.462609-80.940522 20.168348l21.815652-30.363826-82.365217-54.939827 138.373565 51.422609c-3.606261-11.442087-10.24-24.041739-22.394435-33.881043-56.008348-45.590261-149.504-49.819826-269.57913-49.819826l-634.212174 0.26713A521.97287 521.97287 0 0 0 1328.439652 6.544696h1177.6c166.422261 0 303.771826 136.370087 304.350609 306.176 0.578783 170.162087-134.455652 308.313043-301.100522 308.313043h-249.722435l-106.362434 402.565565h-244.290783c167.757913-520.904348 453.320348-590.536348 637.106087-587.330782 62.330435 1.068522 60.68313 28.582957 46.658783 59.525565 77.156174-38.600348 88.375652-126.530783 39.490782-166.377739-47.326609-38.64487-143.983304-33.391304-143.983304-33.391305s0.667826-7.301565-0.890435-17.630608z m-723.745392 116.201739h234.98574l-176.038957 629.047652h-234.985739l176.038956-629.092174zM1126.489043 6.41113c271.983304 0 492.410435 218.067478 492.410435 487.067827 0 268.911304-220.42713 487.023304-492.410435 487.023304a493.033739 493.033739 0 0 1-430.035478-249.856l-45.768348-82.365218H356.708174L299.631304 545.480348h530.342957c24.932174 139.753739 148.168348 245.938087 296.559304 245.938087 166.422261 0 301.278609-133.431652 301.278609-297.984 0-164.552348-134.90087-297.939478-301.278609-297.939478-4.407652 0-8.770783 0.133565-13.133913 0.311652v-0.311652H399.048348l-47.994435-86.372174H57.121391L0 6.500174h1126.489043zM567.251478 469.170087L522.195478 394.017391H227.817739L170.607304 298.562783h767.73287c-50.042435 44.076522-83.522783 103.780174-91.091478 170.607304h-280.041739z" p-id="1122"></path></svg>