<?xml version="1.0" standalone="no"?>
<!DOCTYPE svg PUBLIC "-//W3C//DTD SVG 1.1//EN" "http://www.w3.org/Graphics/SVG/1.1/DTD/svg11.dtd">
<svg t="1537851590564" class="icon" style="" viewBox="0 0 1024 1024" version="1.1" xmlns="http://www.w3.org/2000/svg" 
p-id="1707" xmlns:xlink="http://www.w3.org/1999/xlink" width="32" height="32"><defs><style type="text/css"></style></defs>
<path d="M232.727273 81.035636l744.727273 0 0 42.263273-744.727273 0 0-42.263273Z" p-id="1708" 
></path><path d="M46.545455 46.545455l93.090909 0 0 92.974545-93.090909 0 0-92.974545Z" p-id="1709" 
></path><path d="M232.727273 490.868364l744.727273 0 0 42.263273-744.727273 0 0-42.263273Z" p-id="1710" 
></path><path d="M46.545455 465.524364l93.090909 0 0 92.974545-93.090909 0 0-92.974545Z" p-id="1711"
></path><path d="M232.727273 899.118545l744.727273 0 0 42.263273-744.727273 0 0-42.263273Z" p-id="1712" 
></path><path d="M46.545455 884.48l93.090909 0 0 92.974545-93.090909 0 0-92.974545Z" p-id="1713" 
></path>
</svg>