<?xml version="1.0" standalone="no"?><!DOCTYPE svg PUBLIC "-//W3C//DTD SVG 1.1//EN" "http://www.w3.org/Graphics/SVG/1.1/DTD/svg11.dtd"><svg t="1537518731919" class="icon" style="" viewBox="0 0 1024 1024" version="1.1" xmlns="http://www.w3.org/2000/svg" p-id="5432" xmlns:xlink="http://www.w3.org/1999/xlink" width="32" height="32"><defs><style type="text/css"></style></defs><path d="M224 448a96 96 0 0 0-96 96v320a96 96 0 0 0 96 96h576a96 96 0 0 0 96-96V544a96 96 0 0 0-96-96H224z m0-64h576a160 160 0 0 1 160 160v320a160 160 0 0 1-160 160H224a160 160 0 0 1-160-160V544a160 160 0 0 1 160-160z m0 64V288a288 288 0 1 1 576 0v160H224z m64-64h448V288A224 224 0 1 0 288 288v96z m224 256a64 64 0 1 0 0 128 64 64 0 0 0 0-128z m0-64a128 128 0 1 1 0 256 128 128 0 0 1 0-256z" p-id="5433"></path></svg>