<?xml version="1.0" standalone="no"?><!DOCTYPE svg PUBLIC "-//W3C//DTD SVG 1.1//EN" "http://www.w3.org/Graphics/SVG/1.1/DTD/svg11.dtd"><svg t="1537518818739" class="icon" style="" viewBox="0 0 1024 1024" version="1.1" xmlns="http://www.w3.org/2000/svg" p-id="5545" xmlns:xlink="http://www.w3.org/1999/xlink" width="32" height="32"><defs><style type="text/css"></style></defs><path d="M256 64a96 96 0 0 0-96 96v704a96 96 0 0 0 96 96h512a96 96 0 0 0 96-96V160a96 96 0 0 0-96-96H256z m0-64h512a160 160 0 0 1 160 160v704a160 160 0 0 1-160 160H256a160 160 0 0 1-160-160V160a160 160 0 0 1 160-160z m160 128h192a32 32 0 0 1 0 64h-192a32 32 0 0 1 0-64z m96 768a64 64 0 1 0 0-128 64 64 0 0 0 0 128z" p-id="5546"></path></svg>