<?xml version="1.0" standalone="no"?><!DOCTYPE svg PUBLIC "-//W3C//DTD SVG 1.1//EN" "http://www.w3.org/Graphics/SVG/1.1/DTD/svg11.dtd"><svg t="1539754171027" class="icon" style="" viewBox="0 0 1024 1024" version="1.1" xmlns="http://www.w3.org/2000/svg" p-id="4658" xmlns:xlink="http://www.w3.org/1999/xlink" width="32" height="32"><defs><style type="text/css"></style></defs><path d="M829.788596 1021.276596H191.488C85.770894 1021.184 0.092596 935.505702 0 829.788596V191.488C0.092596 85.770894 85.770894 0.092596 191.488 0h638.300596c105.717106 0.092596 191.395404 85.770894 191.488 191.488v638.300596c-0.092596 105.717106-85.770894 191.395404-191.488 191.488zM191.488 42.550468C109.273872 42.648511 42.648511 109.279319 42.555915 191.493447v638.300596c0.092596 82.214128 66.717957 148.839489 148.932085 148.937531h638.300596c82.214128-0.098043 148.839489-66.723404 148.937532-148.937531V191.488c-0.098043-82.214128-66.723404-148.839489-148.937532-148.932085H191.488z" p-id="4659"></path><path d="M610.042553 806.12766v-141.617022h32.680851v163.404256h-0.010893v10.893617H381.287489v-10.893617H381.276596v-163.404256h32.680851v141.617022h196.085106z m32.669958-457.531915V185.191489H381.287489v163.404256H226.026213C203.465532 348.617532 185.191489 364.173617 185.191489 386.734298v283.212255a40.872851 40.872851 0 0 0 40.872851 40.872851H315.914894v-81.745702h392.170212v81.745702h89.850554a40.872851 40.872851 0 0 0 40.872851-40.872851V386.734298c0-22.571574-18.301277-38.138553-40.872851-38.138553h-155.223149zM610.042553 217.87234v130.723405H413.957447V217.87234h196.085106z m196.096 432.040851a20.027915 20.027915 0 0 1-20.436425 20.07149H740.765957v-81.745702H283.234043v81.702127h-44.908937a20.436426 20.436426 0 0 1-20.436425-20.022468v-247.829787a20.027915 20.027915 0 0 1 20.436425-20.839489H785.702128a20.436426 20.436426 0 0 1 20.436425 20.027915v248.635914zM283.234043 446.638298h98.042553v65.361702H283.234043V446.638298z" p-id="4660"></path></svg>