<?xml version="1.0" encoding="UTF-8"?>
<svg width="22px" height="22px" viewBox="0 0 22 22" version="1.1" xmlns="http://www.w3.org/2000/svg" xmlns:xlink="http://www.w3.org/1999/xlink">
    <!-- Generator: Sketch 49.2 (51160) - http://www.bohemiancoding.com/sketch -->
    <title>Icon/Question</title>
    <desc>Created with Sketch.</desc>
    <defs></defs>
    <g id="Symbols" stroke="none" stroke-width="1" fill="none" fill-rule="evenodd">
        <g id="Modal/Confirmation/Delete" transform="translate(-32.000000, -32.000000)" fill="#F5222D">
            <g id="Icon/Question" transform="translate(32.000000, 32.000000)">
                <path d="M11,0 C4.92421875,0 0,4.92421875 0,11 C0,17.0757812 4.92421875,22 11,22 C17.0757812,22 22,17.0757812 22,11 C22,4.92421875 17.0757812,0 11,0 L11,0 Z M16.1777344,15.1099609 C16.4484375,15.3763672 16.4527344,15.8103516 16.1884766,16.0832031 L16.1884766,16.0832031 C15.9220703,16.3539062 15.4880859,16.3582031 15.2152344,16.0939453 L11,11.9625 L6.78476562,16.0917969 C6.5140625,16.3582031 6.07792969,16.3539062 5.81152344,16.0810547 L5.81152344,16.0810547 C5.54511719,15.8103516 5.54941406,15.3742187 5.82226562,15.1078125 L10.0181641,11 L5.82226562,6.89003906 C5.5515625,6.62363281 5.54726562,6.18964844 5.81152344,5.91679687 L5.81152344,5.91679687 C6.07792969,5.64609375 6.51191406,5.64179687 6.78476562,5.90605469 L11,10.0375 L15.2152344,5.90820312 C15.4859375,5.64179688 15.9220703,5.64609375 16.1884766,5.91894531 L16.1884766,5.91894531 C16.4548828,6.18964844 16.4505859,6.62578125 16.1777344,6.8921875 L11.9818359,11 L16.1777344,15.1099609 L16.1777344,15.1099609 Z" id="Shape"></path>
            </g>
        </g>
    </g>
</svg>