<?xml version="1.0" standalone="no"?><!DOCTYPE svg PUBLIC "-//W3C//DTD SVG 1.1//EN" "http://www.w3.org/Graphics/SVG/1.1/DTD/svg11.dtd"><svg t="1537518372889" class="icon" style="" viewBox="0 0 1024 1024" version="1.1" xmlns="http://www.w3.org/2000/svg" p-id="4579" xmlns:xlink="http://www.w3.org/1999/xlink" width="32" height="32"><defs><style type="text/css"></style></defs><path d="M238.368 692.992l127.68 127.68a31.936 31.936 0 0 1-45.184 45.216l-127.68-127.68-110.304 110.272 116.768 116.768a31.936 31.936 0 0 1-45.184 45.184l-139.84-139.84a31.936 31.936 0 0 1 5.888-49.856 32.32 32.32 0 0 1 2.304-2.56l366.4-366.4c-44.16-115.648-18.4-253.12 76.608-348.128 127.936-127.936 332.928-130.336 457.92-5.376 124.96 124.96 122.56 329.984-5.376 457.92-127.936 127.936-332.96 130.336-457.92 5.376a314.24 314.24 0 0 1-40.704-49.984l-181.376 181.44z m267.808-177.184c100 100.032 264.096 98.112 366.464-4.288 102.4-102.4 104.32-266.464 4.32-366.496-100.032-100-264.096-98.08-366.496 4.32-102.4 102.4-104.32 266.464-4.288 366.464z" p-id="4580"></path></svg>