<?xml version="1.0" standalone="no"?><!DOCTYPE svg PUBLIC "-//W3C//DTD SVG 1.1//EN" "http://www.w3.org/Graphics/SVG/1.1/DTD/svg11.dtd"><svg t="1537518921351" class="icon" style="" viewBox="0 0 1024 1024" version="1.1" xmlns="http://www.w3.org/2000/svg" p-id="7127" xmlns:xlink="http://www.w3.org/1999/xlink" width="32" height="32"><defs><style type="text/css"></style></defs><path d="M960 256H64v480a32 32 0 0 0 32 32h96a32 32 0 0 1 0 64H96a96 96 0 0 1-96-96V96a96 96 0 0 1 96-96h832a96 96 0 0 1 96 96v640a32 32 0 0 1-64 0V256z m0-64V96a32 32 0 0 0-32-32H96a32 32 0 0 0-32 32v96h896zM576 992c-194.4 0-352-157.6-352-352S381.6 288 576 288s352 157.6 352 352-157.6 352-352 352z m0-64a288 288 0 1 0 0-576 288 288 0 0 0 0 576z m-192-448a32 32 0 0 1 32 32v256a32 32 0 0 1-64 0v-256a32 32 0 0 1 32-32z m128 0a32 32 0 0 1 32 32v192a32 32 0 0 1-64 0v-192a32 32 0 0 1 32-32z m128 0a32 32 0 0 1 32 32v192a32 32 0 0 1-64 0v-192a32 32 0 0 1 32-32z m128 0a32 32 0 0 1 32 32v256a32 32 0 0 1-64 0v-256a32 32 0 0 1 32-32z m44.96 332.96a63.552 63.552 0 0 1 89.888 0l99.52 99.52a63.552 63.552 0 1 1-89.888 89.92l-99.52-99.552a63.552 63.552 0 0 1 0-89.92z" p-id="7128"></path></svg>