<?xml version="1.0" standalone="no"?><!DOCTYPE svg PUBLIC "-//W3C//DTD SVG 1.1//EN" "http://www.w3.org/Graphics/SVG/1.1/DTD/svg11.dtd"><svg t="1539422204933" class="icon" style="" viewBox="0 0 1024 1024" version="1.1" xmlns="http://www.w3.org/2000/svg" p-id="1188" xmlns:xlink="http://www.w3.org/1999/xlink" width="32" height="32"><defs><style type="text/css"></style></defs><path d="M352 576.576h320a31.04 31.04 0 0 1 0 62.048H352a31.04 31.04 0 0 1 0-62.08z m0-192.192h320a31.04 31.04 0 0 1 0 62.08H352a31.04 31.04 0 0 1 0-62.08z m0-192.192h320a31.04 31.04 0 0 1 0 62.08H352a31.04 31.04 0 0 1 0-62.08z m608 351.36a32 32 0 1 1 64 0v384.352A96.032 96.032 0 0 1 928 1024H96c-53.024 0-96-43.008-96-96.096V543.52a32 32 0 1 1 64 0v384.384a32 32 0 0 0 32 32.032h832a32 32 0 0 0 32-32V543.488zM320 64.032c-35.36 0-64 28.672-64 64.064V703.68c0 35.392 28.64 64.064 64 64.064h384c35.36 0 64-28.672 64-64.064V128.128a64.032 64.032 0 0 0-64-64.064H320zM320 0h384c70.72 0 128 57.376 128 128.128V703.68a128.064 128.064 0 0 1-128 128.128H320c-70.72 0-128-57.344-128-128.128V128.128A128.064 128.064 0 0 1 320 0z" p-id="1189"></path></svg>