<?xml version="1.0" standalone="no"?><!DOCTYPE svg PUBLIC "-//W3C//DTD SVG 1.1//EN" "http://www.w3.org/Graphics/SVG/1.1/DTD/svg11.dtd"><svg t="1537518406745" class="icon" style="" viewBox="0 0 1024 1024" version="1.1" xmlns="http://www.w3.org/2000/svg" p-id="5266" xmlns:xlink="http://www.w3.org/1999/xlink" width="32" height="32"><defs><style type="text/css"></style></defs><path d="M760.796218 81.737017m22.966828 22.966828l137.868852 137.868852q22.966828 22.966828 0 45.933657l-0.022628 0.022627q-22.966828 22.966828-45.933656 0l-137.868852-137.868852q-22.966828-22.966828 0-45.933656l0.022628-0.022628q22.966828-22.966828 45.933656 0Z" p-id="5267"></path><path d="M603.807199 516.228678L922.288093 197.747784a64.96 64.96 0 0 0-91.889941-91.88994l-318.480894 318.480894-28.442663 120.309976 120.332604-28.420036zM968.244377 59.924187a129.984 129.984 0 0 1 0 183.779881l-318.480894 318.480894c-8.530536 8.530536-19.278559 14.526802-30.999562 17.287347l-171.515821 40.548331a32.48 32.48 0 0 1-39.100176-39.100177L448.673628 409.382015a64.96 64.96 0 0 1 17.287346-30.999561L784.441869 59.90156A129.984 129.984 0 0 1 968.244377 59.924187z" p-id="5268"></path><path d="M259.936 292.928m32.48 0l162.496 0q32.48 0 32.48 32.48l0 0.032q0 32.48-32.48 32.48l-162.496 0q-32.48 0-32.48-32.48l0-0.032q0-32.48 32.48-32.48Z" p-id="5269"></path><path d="M194.944 812.8h130.464a32 32 0 0 1 32 32v0.96a32 32 0 0 1-32 32H161.984a32 32 0 0 1-32-32v-163.424a32 32 0 0 1 32-32h0.96a32 32 0 0 1 32 32V812.8z" p-id="5270"></path><path d="M714.816 572.16a32.48 32.48 0 0 1 64.992 0v354.368A97.472 97.472 0 0 1 682.336 1024H97.472A97.472 97.472 0 0 1 0 926.528V211.68A97.472 97.472 0 0 1 97.472 114.24h494.944a32.48 32.48 0 0 1 0 64.992H97.472c-17.92 0-32.48 14.56-32.48 32.48v714.848c0 17.92 14.528 32.48 32.48 32.48h584.864c17.92 0 32.48-14.528 32.48-32.48V572.16z" p-id="5271"></path></svg>