<?xml version="1.0" standalone="no"?><!DOCTYPE svg PUBLIC "-//W3C//DTD SVG 1.1//EN" "http://www.w3.org/Graphics/SVG/1.1/DTD/svg11.dtd"><svg t="1539746478443" class="icon" style="" viewBox="0 0 1024 1024" version="1.1" xmlns="http://www.w3.org/2000/svg" p-id="3740" xmlns:xlink="http://www.w3.org/1999/xlink" width="32" height="32"><defs><style type="text/css"></style></defs><path d="M829.788596 1021.276596H191.488C85.770894 1021.184 0.092596 935.505702 0 829.788596V191.488C0.092596 85.770894 85.770894 0.092596 191.488 0h638.300596c105.717106 0.092596 191.395404 85.770894 191.488 191.488v638.300596c-0.092596 105.717106-85.770894 191.395404-191.488 191.488zM191.488 42.550468C109.273872 42.648511 42.648511 109.279319 42.555915 191.493447v638.300596c0.092596 82.214128 66.717957 148.839489 148.932085 148.937531h638.300596c82.214128-0.098043 148.839489-66.723404 148.937532-148.937531V191.488c-0.098043-82.214128-66.723404-148.839489-148.937532-148.932085H191.488z" p-id="3741"></path><path d="M620.93617 397.617021c30.022809 0 54.468085-24.423489 54.468085-54.468085 0-30.050043-24.445277-54.468085-54.468085-54.468085-30.017362 0-54.468085 24.418043-54.468085 54.468085s24.445277 54.468085 54.468085 54.468085z m-67.633021 136.480681c24.603234 30.186213 49.39166 50.274043 50.464681 51.129192l17.266383 13.922042 17.195574-14.025532c1.078468-0.860596 25.785191-21.182638 50.333958-51.270808 0.838809-0.90417 1.917277-2.156936 2.95217-3.70383 35.104681-46.357787 75.552681-110.308766 85.422298-168.458894 1.906383-13.252085 1.949957-21.280681 1.949957-22.163063 0.326809-43.449191-13.562553-77.862128-44.903489-108.429618C703.635064 201.48834 663.475745 185.191489 620.93617 185.191489a160.626383 160.626383 0 0 0-112.770723 45.905702C476.650213 261.828085 462.651915 296.453447 462.978723 340.218553c0 0.691745 0.054468 8.753021 1.879149 21.36783 10.583149 62.229787 56.646809 130.95217 85.514894 168.883745 1.051234 1.51966 2.080681 2.745191 2.924936 3.627574zM756.300255 659.06383h10.555915c37.39234 0 65.721191 26.199149 66.489192 61.178553 0.010894 0.484766 0.01634 55.437617 0.01634 55.92783 0 35.70383-28.590298 62.638298-66.505532 62.638298H425.324936A16.770723 16.770723 0 0 1 408.510638 822.081362a16.770723 16.770723 0 0 1 16.808851-16.732596h341.536681c15.833872 0 32.882383-9.128851 32.882383-29.184 0-0.479319-0.010894-55.421277-0.032681-55.884255-0.78434-19.06383-17.39166-27.756936-32.849702-27.756937h-98.554553c-1.770213 0-3.480511-0.27234-5.081872-0.778893h-411.615319C213.74366 691.744681 185.191489 664.810213 185.191489 629.106383c0-0.78434 0.010894-56.025872 0.038128-56.793872C186.444255 537.768851 214.566128 512 251.604426 512h87.791659a16.75983 16.75983 0 0 1 16.787064 16.727149 16.75983 16.75983 0 0 1-16.787064 16.732596H251.604426c-15.22383 0-31.569702 8.458894-32.762554 26.978042-0.049021 0.718979-0.070809 55.916936-0.070808 56.663149 0 19.156426 16.52017 29.178553 32.833362 29.178553h499.603063c1.77566 0 3.485957 0.27234 5.092766 0.784341z m-10.092936-312.984511s0 5.991489-1.427064 15.931915c-7.854298 46.395915-48.11166 107.040681-77.856681 146.290383-0.23966 0.468426-0.718979 0.920511-0.947744 1.16017C645.272511 535.067234 620.93617 555.574468 620.93617 555.574468s-24.33634-20.262128-45.034213-45.878468a5.958809 5.958809 0 0 1-0.953191-1.16017c-29.739574-39.010043-70.002383-103.080851-77.862128-149.258894-1.421617-9.913191-1.421617-15.926468-1.421617-15.926468C495.185702 277.095489 555.264 223.319149 620.93617 223.319149c65.67217 0 125.745021 56.510638 125.276596 122.76017z" p-id="3742"></path></svg>