<?xml version="1.0" standalone="no"?><!DOCTYPE svg PUBLIC "-//W3C//DTD SVG 1.1//EN" "http://www.w3.org/Graphics/SVG/1.1/DTD/svg11.dtd"><svg t="1537518862046" class="icon" style="" viewBox="0 0 1024 1024" version="1.1" xmlns="http://www.w3.org/2000/svg" p-id="5771" xmlns:xlink="http://www.w3.org/1999/xlink" width="32" height="32"><defs><style type="text/css"></style></defs><path d="M512 651.648c-160.672 0-279.264-117.376-279.264-279.296C232.736 141.792 333.056 0 512 0c178.944 0 279.264 141.76 279.264 372.352 0 161.92-118.592 279.296-279.264 279.296z m0-64c125.472 0 215.264-88.896 215.264-215.296C727.264 173.312 649.92 64 512 64c-137.92 0-215.264 109.344-215.264 308.352 0 126.4 89.792 215.296 215.264 215.296zM512 1024c-397.6 0-512-14.528-512-93.12 0-127.616 242.784-232.704 512-232.704s512 105.088 512 232.736C1024 1009.472 909.6 1024 512 1024zM70.112 930.688c13.568 6.24 37.344 11.776 71.808 16.16C213.632 955.968 329.6 960 512 960s298.368-4.032 370.08-13.12c34.464-4.416 58.24-9.92 71.808-16.192 2.72-1.28 4.672-2.368 5.984-3.264-6.144-76.864-213.856-165.248-447.872-165.248-234.016 0-441.728 88.384-447.872 165.248 1.28 0.896 3.264 2.016 5.984 3.264z m891.072-4.256a4.192 4.192 0 0 0 0.288-0.256l-0.32 0.256z" p-id="5772"></path></svg>