<?xml version="1.0" standalone="no"?><!DOCTYPE svg PUBLIC "-//W3C//DTD SVG 1.1//EN" "http://www.w3.org/Graphics/SVG/1.1/DTD/svg11.dtd"><svg t="1537518382696" class="icon" style="" viewBox="0 0 1024 1024" version="1.1" xmlns="http://www.w3.org/2000/svg" p-id="4692" xmlns:xlink="http://www.w3.org/1999/xlink" width="32" height="32"><defs><style type="text/css"></style></defs><path d="M415.776 126.016H319.584c-17.728 0-32.096 14.304-32.096 32v64c0 17.664 14.4 32 32.096 32h384.832c17.728 0 32.096-14.336 32.096-32v-64c0-17.696-14.4-32-32.096-32h-96.192V64h-192.448v62.016z m0-126.016h192.448c34.752 0 63.04 27.584 64.096 61.984h32.096a96.096 96.096 0 0 1 96.224 96v64c0 53.024-43.072 96-96.224 96H319.584a96.096 96.096 0 0 1-96.224-96v-64c0-52.992 43.072-96 96.224-96H351.68A64.064 64.064 0 0 1 415.776 0z m352.768 191.008v-64h31.104a160.192 160.192 0 0 1 160.352 160V864c0 88.352-71.808 160-160.352 160H224.32A160.192 160.192 0 0 1 64 864V287.008c0-88.384 71.808-160 160.352-160h31.84v64h-31.84a96.096 96.096 0 0 0-96.224 96V864c0 53.024 43.104 96 96.224 96H799.68a96.096 96.096 0 0 0 96.224-96V287.008c0-53.024-43.104-96-96.224-96h-31.104z" p-id="4693"></path><path d="M288 416h448a32 32 0 0 1 0 64H288a32 32 0 0 1 0-64z m0 192h448a32 32 0 0 1 0 64H288a32 32 0 0 1 0-64z m0 192h256a32 32 0 0 1 0 64H288a32 32 0 0 1 0-64z" p-id="4694"></path></svg>