<?xml version="1.0" standalone="no"?><!DOCTYPE svg PUBLIC "-//W3C//DTD SVG 1.1//EN" "http://www.w3.org/Graphics/SVG/1.1/DTD/svg11.dtd"><svg t="1537518857820" class="icon" style="" viewBox="0 0 1024 1024" version="1.1" xmlns="http://www.w3.org/2000/svg" p-id="5658" xmlns:xlink="http://www.w3.org/1999/xlink" width="32" height="32"><defs><style type="text/css"></style></defs><path d="M31.99937 272.014805a31.99937 31.99937 0 1 1 0-63.99874c211.931828 0 281.274462-26.303482 457.590991-198.876085a31.99937 31.99937 0 1 1 44.799118 45.759099C345.625196 239.599443 260.154878 272.014805 31.99937 272.014805z m959.9811-63.99874a31.99937 31.99937 0 0 1 0 63.99874c-228.155508 0-313.657825-32.415362-502.390109-217.115726a31.99937 31.99937 0 1 1 44.799118-45.759099C710.706008 181.712583 780.016643 208.016065 991.98047 208.016065z m-31.99937 31.99937a31.99937 31.99937 0 0 1 63.99874 0C1023.97984 643.015501 761.233013 1024 511.98992 1024S0 643.015501 0 240.015435a31.99937 31.99937 0 1 1 63.99874 0C63.99874 611.624119 304.25001 960.00126 511.98992 960.00126S959.9811 611.624119 959.9811 240.015435z m-151.581015 110.397826a31.99937 31.99937 0 0 1 45.279108 45.247109l-310.32989 310.297891c-40.447204 40.447204-103.997953 44.70312-142.205201 6.463873l-135.773326-135.741327a31.99937 31.99937 0 0 1 45.247109-45.24711l135.773327 135.741328c11.775768 11.775768 35.007311 10.239798 51.710982-6.463873l310.297891-310.297891z" p-id="5659"></path></svg>