<?xml version="1.0" standalone="no"?><!DOCTYPE svg PUBLIC "-//W3C//DTD SVG 1.1//EN" "http://www.w3.org/Graphics/SVG/1.1/DTD/svg11.dtd"><svg t="1537518924524" class="icon" style="" viewBox="0 0 1207 1024" version="1.1" xmlns="http://www.w3.org/2000/svg" p-id="7240" xmlns:xlink="http://www.w3.org/1999/xlink" width="37.71875" height="32"><defs><style type="text/css"></style></defs><path d="M445.604874 0C199.866892 0 0 170.483182 0 380.074745c0 111.925459 53.970614 212.579737 152.449291 285.44924L83.354323 873.018584l216.144576-133.838735c59.999386 18.846465 133.209645 25.504326 203.851124 17.719347C560.701992 867.85481 690.215737 943.63385 838.785645 943.63385c45.163365 0 86.919162-8.492705 125.73921-20.078431l179.500128 100.444581-50.065018-171.688937C1161.508422 796.191061 1205.754364 718.079148 1205.754364 629.089234c0-162.776839-141.597502-292.631342-321.097629-311.792352C849.427738 135.044489 664.921108 0 445.604874 0z m-157.272309 209.696411c28.885681 0 52.424103 23.538422 52.424103 52.424103 0 28.885681-23.538422 52.424103-52.424103 52.424103-28.885681 0-52.424103-23.538422-52.424102-52.424103 0-28.885681 23.538422-52.424103 52.424102-52.424103z m314.544617 0c28.885681 0 52.424103 23.538422 52.424103 52.424103 0 28.885681-23.538422 52.424103-52.424103 52.424103-28.885681 0-52.424103-23.538422-52.424103-52.424103 0-28.885681 23.538422-52.424103 52.424103-52.424103z m235.908463 157.272309c176.826499 0 314.544617 118.871653 314.544617 262.120514 0 77.509036-39.527774 145.476885-104.743358 193.83812l-14.652537 10.956637 23.852967 81.781601-85.189167-47.810782-11.035273 3.695899c-36.67066 12.293452-78.531306 19.659039-122.777249 19.659039-176.826499 0-314.544617-118.871653-314.544617-262.120514s137.718118-262.120514 314.544617-262.120514z m-117.954231 157.272308c-20.969641 0-39.318077 18.348436-39.318078 39.318077s18.348436 39.318077 39.318078 39.318077 39.318077-18.348436 39.318077-39.318077-18.348436-39.318077-39.318077-39.318077z m235.908462 0c-20.969641 0-39.318077 18.348436-39.318077 39.318077s18.348436 39.318077 39.318077 39.318077 39.318077-18.348436 39.318077-39.318077-18.348436-39.318077-39.318077-39.318077z" p-id="7241"></path></svg>